<?xml version="1.0" standalone="no"?>
<!DOCTYPE svg PUBLIC "-//W3C//DTD SVG 20010904//EN"
 "http://www.w3.org/TR/2001/REC-SVG-20010904/DTD/svg10.dtd">
<svg version="1.0" xmlns="http://www.w3.org/2000/svg"
 width="400.000000pt" height="320.000000pt" viewBox="0 0 400.000000 320.000000"
 preserveAspectRatio="xMidYMid meet">

<g transform="translate(0.000000,320.000000) scale(0.100000,-0.100000)"
fill="#000000" stroke="none">
<path d="M1574 3005 c-46 -23 -168 -135 -147 -135 5 0 29 21 53 46 114 115
211 130 330 48 50 -35 52 -35 103 -24 89 19 209 14 266 -11 46 -19 95 -63 129
-115 7 -10 4 -1 -7 21 -43 90 -122 129 -261 129 -52 0 -113 -6 -134 -12 -37
-11 -42 -9 -85 22 -87 63 -164 72 -247 31z"/>
<path d="M1304 2861 c-83 -51 -96 -212 -23 -296 l30 -34 -49 -25 c-215 -109
-407 -295 -533 -516 -23 -41 -43 -76 -45 -78 -1 -2 -11 2 -23 10 -19 11 -25 8
-65 -31 -40 -39 -47 -43 -63 -31 -15 12 -16 12 -6 0 7 -8 13 -37 13 -65 0 -43
4 -55 27 -76 l27 -24 -22 29 c-36 48 -30 98 19 151 46 49 63 55 79 26 15 -29
13 -37 -20 -74 -24 -28 -30 -44 -30 -81 0 -29 5 -48 13 -50 6 -2 28 -8 47 -14
32 -10 33 -10 16 3 -11 8 -30 15 -43 15 -20 0 -23 5 -23 43 1 28 8 50 23 68
26 32 94 79 113 79 26 0 14 -46 -21 -80 -48 -46 -48 -91 -1 -55 11 8 30 15 43
15 30 0 133 -39 133 -50 0 -18 -39 -30 -94 -30 l-56 0 -2 -32 c0 -18 -1 -39
-1 -45 1 -7 -4 -13 -11 -14 -6 -1 0 -4 14 -8 36 -10 59 -2 77 28 22 35 55 71
65 71 12 0 10 -74 -3 -107 -28 -73 -138 -170 -181 -159 l-23 6 23 -11 c27 -15
28 -31 1 -85 -26 -55 -87 -117 -139 -144 l-40 -20 -2 117 c0 65 -3 103 -5 85
-3 -23 -17 -45 -48 -73 -52 -48 -93 -125 -76 -142 8 -8 11 -5 11 11 0 33 23
72 69 117 l41 39 0 -82 c0 -56 -4 -82 -12 -82 -6 0 -9 -3 -6 -6 9 -9 77 24
120 58 35 27 104 120 122 161 3 8 14 2 30 -16 23 -24 26 -37 26 -95 0 -65 -1
-69 -44 -118 -60 -68 -144 -131 -213 -160 -32 -13 -51 -24 -42 -24 38 0 146
67 217 136 42 40 77 72 79 70 1 -1 6 -42 10 -92 6 -67 9 -80 13 -52 4 31 25
57 125 159 117 119 159 149 208 149 21 0 25 6 30 40 7 56 0 77 -35 91 -41 17
-75 66 -89 127 -25 108 18 252 136 452 18 30 20 37 6 20 l-21 -25 0 205 0 206
65 32 66 32 44 -30 44 -30 -24 -37 c-14 -19 -25 -42 -25 -49 0 -28 -24 -63
-44 -66 -15 -2 -23 -12 -26 -33 -3 -16 -12 -43 -21 -60 -9 -16 -19 -41 -23
-55 -3 -14 5 -1 19 29 l25 53 55 -4 c36 -3 66 -13 85 -27 36 -26 39 -11 10 37
-11 18 -36 40 -56 48 -66 27 -37 39 90 36 188 -4 344 -46 502 -135 l72 -40
-16 -36 c-18 -42 -20 -158 -4 -216 11 -36 10 -42 -12 -65 -14 -14 -37 -50 -52
-80 l-27 -54 48 -43 49 -43 27 75 c32 88 88 176 124 195 31 16 53 7 72 -31 8
-14 13 -18 13 -9 0 9 -7 26 -16 39 l-16 23 30 -16 c43 -22 54 -20 16 3 -20 12
-34 32 -42 59 -37 122 -309 307 -533 362 -50 13 -135 24 -212 27 -106 5 -127
8 -123 20 4 8 6 18 6 23 0 5 12 23 26 40 15 17 25 32 23 34 -2 1 -24 17 -49
33 -59 40 -116 101 -129 136 -18 46 -13 133 9 176 17 34 43 53 100 74 9 3 5 6
-10 6 -14 1 -39 -8 -56 -18z"/>
<path d="M2401 2713 c101 -50 182 -131 203 -203 20 -67 20 -110 1 -185 -16
-58 -15 -60 10 -118 46 -101 34 -237 -26 -296 -31 -32 -93 -50 -171 -52 -42
-1 -47 -3 -23 -8 l30 -6 3 -87 c3 -80 1 -87 -18 -93 -12 -4 -20 -9 -17 -11 2
-2 23 2 45 10 78 28 336 55 542 58 74 1 120 4 101 7 -31 6 -35 11 -61 81 -64
176 -146 305 -287 451 l-103 106 0 55 c0 122 -73 228 -202 293 -39 19 -77 35
-86 35 -8 0 19 -17 59 -37z"/>
<path d="M1925 2554 c-11 -9 -47 -29 -80 -45 -33 -16 -54 -29 -47 -29 7 0 27
7 44 16 16 9 40 13 53 10 12 -3 58 -41 102 -83 44 -43 94 -86 111 -96 44 -25
40 -15 -7 16 -21 14 -70 57 -110 96 -40 39 -76 71 -82 71 -19 0 -8 19 24 39
17 11 28 21 22 21 -5 -1 -19 -8 -30 -16z"/>
<path d="M1520 2543 c0 -12 69 -57 77 -49 3 3 1 6 -5 6 -6 0 -24 12 -41 26
-17 14 -31 22 -31 17z"/>
<path d="M1648 2473 c6 -2 18 -2 25 0 6 3 1 5 -13 5 -14 0 -19 -2 -12 -5z"/>
<path d="M1748 2473 c6 -2 18 -2 25 0 6 3 1 5 -13 5 -14 0 -19 -2 -12 -5z"/>
<path d="M2157 2299 c7 -7 15 -10 18 -7 3 3 -2 9 -12 12 -14 6 -15 5 -6 -5z"/>
<path d="M2200 2280 c8 -5 24 -10 34 -10 26 0 18 6 -19 14 -22 5 -26 4 -15 -4z"/>
<path d="M2261 2243 c1 -22 2 -23 6 -8 3 11 10 23 17 27 7 5 5 8 -6 8 -13 0
-18 -7 -17 -27z"/>
<path d="M1820 2191 c-32 -10 -87 -39 -93 -48 -3 -5 23 -9 57 -10 66 -2 139
-24 168 -50 21 -19 22 -12 8 39 -18 64 -70 90 -140 69z"/>
<path d="M2262 2110 c0 -19 2 -27 5 -17 2 9 2 25 0 35 -3 9 -5 1 -5 -18z"/>
<path d="M1241 2104 c0 -11 3 -14 6 -6 3 7 2 16 -1 19 -3 4 -6 -2 -5 -13z"/>
<path d="M1324 2061 c23 -24 38 -31 65 -31 61 0 68 16 10 23 -28 4 -63 14 -78
23 -25 16 -25 16 3 -15z"/>
<path d="M1491 2079 c-1 -21 -57 -69 -139 -120 -36 -22 -71 -54 -83 -74 -12
-19 -27 -35 -35 -35 -29 0 -134 -66 -134 -84 0 -3 16 -6 35 -6 27 0 46 -10 87
-47 29 -25 61 -58 70 -72 47 -70 138 -79 285 -26 101 36 159 43 195 24 18 -10
19 -8 13 13 -20 67 -71 113 -155 138 -57 17 -58 17 -63 -1 -8 -28 -36 -34 -83
-17 -25 9 -48 12 -56 7 -42 -27 -149 6 -163 51 -13 41 28 85 136 150 66 39
105 81 95 103 -2 7 -5 5 -5 -4z m0 -464 c34 -8 34 -8 9 -17 -14 -5 -53 -8 -87
-6 -53 3 -68 9 -93 33 -37 36 -38 45 -2 45 15 0 35 7 45 15 17 12 23 9 57 -25
21 -21 53 -41 71 -45z"/>
<path d="M2272 2055 c0 -11 3 -29 8 -40 11 -25 11 1 0 35 -6 20 -8 21 -8 5z"/>
<path d="M1669 1982 c6 -11 26 -27 46 -36 30 -14 41 -15 77 -4 l43 12 -62 6
c-34 4 -74 15 -88 24 -26 17 -26 17 -16 -2z"/>
<path d="M1542 1869 c10 -5 22 -17 27 -27 6 -9 11 -12 11 -5 0 6 -7 19 -16 27
-8 9 -21 16 -27 16 -7 0 -4 -5 5 -11z"/>
<path d="M493 1855 c-3 -9 -3 -18 -1 -21 3 -3 8 4 11 16 6 23 -1 27 -10 5z"/>
<path d="M482 1772 c-2 -37 5 -66 20 -95 11 -23 24 -53 29 -67 5 -17 8 -19 8
-7 1 10 -9 37 -21 60 -12 23 -25 69 -29 102 l-6 60 -1 -53z"/>
<path d="M2272 1780 c0 -14 2 -19 5 -12 2 6 2 18 0 25 -3 6 -5 1 -5 -13z"/>
<path d="M2122 1767 c-12 -13 -22 -27 -22 -33 0 -5 5 -1 11 9 14 23 27 21 32
-5 2 -13 3 -9 1 9 -2 26 1 33 19 36 21 4 21 4 1 6 -11 0 -30 -9 -42 -22z"/>
<path d="M2244 1705 c-7 -17 -63 -53 -102 -65 -20 -6 -22 -8 -7 -9 27 -1 95
39 113 67 8 12 11 22 8 22 -4 0 -9 -7 -12 -15z"/>
<path d="M3143 1713 c9 -2 23 -2 30 0 6 3 -1 5 -18 5 -16 0 -22 -2 -12 -5z"/>
<path d="M3203 1703 c9 -2 23 -2 30 0 6 3 -1 5 -18 5 -16 0 -22 -2 -12 -5z"/>
<path d="M3258 1693 c6 -2 18 -2 25 0 6 3 1 5 -13 5 -14 0 -19 -2 -12 -5z"/>
<path d="M3318 1683 c6 -2 18 -2 25 0 6 3 1 5 -13 5 -14 0 -19 -2 -12 -5z"/>
<path d="M3368 1673 c6 -2 18 -2 25 0 6 3 1 5 -13 5 -14 0 -19 -2 -12 -5z"/>
<path d="M3418 1663 c7 -3 16 -2 19 1 4 3 -2 6 -13 5 -11 0 -14 -3 -6 -6z"/>
<path d="M3465 1650 c27 -12 43 -12 25 0 -8 5 -22 9 -30 9 -10 0 -8 -3 5 -9z"/>
<path d="M2240 1584 c-69 -36 -129 -70 -135 -76 -8 -8 260 127 274 139 2 1 0
3 -5 3 -5 0 -65 -30 -134 -66z"/>
<path d="M3565 1607 c126 -68 212 -144 256 -227 10 -19 18 -30 19 -24 0 16
-46 82 -88 127 -41 43 -124 102 -189 136 -66 33 -65 24 2 -12z"/>
<path d="M2063 1615 c-3 -9 -3 -19 1 -22 3 -4 6 1 6 10 0 8 10 18 23 20 l22 4
-23 2 c-12 0 -25 -6 -29 -14z"/>
<path d="M2813 1603 c-22 -4 -63 -47 -63 -64 0 -5 12 -23 28 -39 37 -42 92
-50 156 -22 43 20 46 23 46 60 0 24 -6 45 -16 53 -16 13 -111 21 -151 12z"/>
<path d="M1241 1591 c-1 -8 9 -25 21 -38 12 -13 17 -23 11 -23 -14 0 -73 -49
-73 -60 0 -5 13 5 29 21 25 24 38 29 83 30 50 1 51 2 16 8 -42 9 -66 26 -78
56 -5 11 -9 14 -9 6z"/>
<path d="M2038 1533 c-22 -61 -67 -116 -122 -148 -76 -44 -173 -62 -388 -69
-217 -7 -241 -3 -293 50 -21 23 -25 24 -16 7 6 -12 17 -28 25 -35 7 -8 21 -30
31 -48 10 -19 27 -48 39 -65 11 -16 20 -39 19 -50 -1 -16 -1 -17 3 -2 5 15 13
11 53 -28 l47 -46 -9 -48 c-8 -38 -7 -54 5 -78 15 -31 15 -32 -24 -70 -22 -21
-56 -60 -76 -88 l-37 -50 -6 45 c-5 35 -6 27 -7 -35 0 -44 3 -71 6 -60 6 15
16 20 47 20 22 1 55 4 73 9 l32 8 0 -56 c0 -58 17 -155 30 -169 10 -12 77 74
105 135 30 65 41 150 27 201 -10 36 -8 41 23 82 18 24 36 58 40 74 4 21 19 37
48 55 38 22 44 23 59 9 20 -18 50 -14 55 7 4 12 3 12 -5 2 -12 -18 -46 -11
-50 10 -4 21 37 35 49 17 5 -8 9 -9 9 -3 0 5 -5 15 -11 21 -8 8 -5 15 12 24
13 7 27 12 32 11 4 -1 7 4 7 11 0 7 14 23 30 35 17 13 46 55 66 95 19 39 44
86 55 103 14 23 16 33 7 36 -9 3 -6 19 11 57 12 29 21 57 19 62 -2 5 -11 -12
-20 -38z m-368 -231 c0 -10 -98 -152 -104 -152 -3 0 -14 30 -27 68 -12 37 -24
73 -27 80 -3 9 16 12 77 12 45 0 81 -4 81 -8z"/>
<path d="M3115 1560 c-12 -4 -27 -16 -35 -26 -14 -16 -13 -17 5 -9 11 5 40 10
64 13 44 4 44 5 20 18 -28 15 -28 15 -54 4z"/>
<path d="M2421 1547 c-88 -33 -78 -107 19 -136 52 -15 111 0 139 36 27 33 26
37 -7 74 -32 36 -95 47 -151 26z"/>
<path d="M543 1505 c0 -22 2 -30 4 -17 2 12 2 30 0 40 -3 9 -5 -1 -4 -23z"/>
<path d="M1390 1509 c13 -6 32 -15 40 -22 9 -7 5 -2 -8 11 -13 12 -31 22 -40
21 -11 0 -9 -4 8 -10z"/>
<path d="M3294 1510 c-31 -12 -64 -58 -57 -78 11 -31 25 -42 79 -58 52 -17 53
-17 101 7 49 26 59 43 49 84 -11 43 -112 70 -172 45z"/>
<path d="M2649 1466 c25 -26 63 -34 89 -17 9 5 3 8 -17 9 -16 0 -44 8 -63 18
l-33 17 24 -27z"/>
<path d="M3064 1435 c-18 -13 -16 -14 24 -15 24 0 56 -7 72 -15 26 -14 30 -14
30 -1 0 39 -87 60 -126 31z"/>
<path d="M2823 1415 l-28 -25 33 11 c18 6 50 9 72 7 37 -3 38 -2 23 14 -23 25
-67 22 -100 -7z"/>
<path d="M3000 1395 c-7 -8 -33 -21 -59 -29 -44 -13 -45 -14 -19 -21 34 -9 78
12 89 43 10 26 6 28 -11 7z"/>
<path d="M2673 1375 c-17 -7 -39 -25 -48 -39 -16 -24 -16 -28 0 -52 18 -28 71
-54 107 -54 37 1 106 36 113 59 11 35 -5 62 -48 82 -50 22 -81 23 -124 4z"/>
<path d="M2304 1354 c29 -25 66 -27 90 -4 5 5 1 7 -10 4 -10 -3 -39 2 -64 10
l-45 16 29 -26z"/>
<path d="M3460 1365 c-10 -12 -7 -14 17 -13 15 1 46 -1 68 -5 l40 -7 -24 20
c-27 23 -83 27 -101 5z"/>
<path d="M2532 1303 c-6 -27 -14 -56 -17 -66 -12 -30 24 -8 41 25 15 29 11 88
-5 88 -4 0 -13 -21 -19 -47z"/>
<path d="M3322 1334 c9 -10 23 -35 31 -54 l15 -35 1 30 c1 36 -6 48 -39 65
-24 12 -24 12 -8 -6z"/>
<path d="M3083 1329 c-29 -8 -73 -50 -73 -70 0 -4 11 -21 25 -38 36 -42 96
-50 158 -23 81 36 68 107 -22 132 -41 11 -45 11 -88 -1z"/>
<path d="M3851 1304 c0 -11 3 -14 6 -6 3 7 2 16 -1 19 -3 4 -6 -2 -5 -13z"/>
<path d="M2290 1289 c-107 -43 -86 -139 33 -154 67 -9 104 -1 135 27 23 23 28
57 12 87 -21 40 -124 62 -180 40z"/>
<path d="M3862 1250 c0 -19 2 -27 5 -17 2 9 2 25 0 35 -3 9 -5 1 -5 -18z"/>
<path d="M2926 1238 c-15 -15 -47 -33 -70 -40 -38 -11 -39 -12 -14 -16 35 -4
76 16 101 50 28 37 19 40 -17 6z"/>
<path d="M3425 1245 c-66 -24 -83 -65 -42 -103 47 -44 146 -45 193 -1 29 27
31 58 6 89 -23 29 -100 36 -157 15z"/>
<path d="M2573 1205 c-33 -14 -43 -32 -43 -73 l1 -27 13 31 c21 47 51 64 89
52 62 -20 87 -21 113 -3 34 22 27 27 -20 14 -29 -8 -48 -7 -80 4 -35 12 -48
12 -73 2z"/>
<path d="M2958 1147 c-15 -11 -44 -23 -65 -26 -37 -7 -37 -7 -15 -20 31 -17
79 -5 98 25 23 34 13 45 -18 21z"/>
<path d="M3227 1138 c13 -13 26 -39 29 -57 6 -27 9 -30 16 -16 16 27 0 63 -35
81 l-32 17 22 -25z"/>
<path d="M458 1143 c12 -2 30 -2 40 0 9 3 -1 5 -23 4 -22 0 -30 -2 -17 -4z"/>
<path d="M1322 1130 c0 -14 2 -19 5 -12 2 6 2 18 0 25 -3 6 -5 1 -5 -13z"/>
<path d="M1852 1130 c0 -14 2 -19 5 -12 2 6 2 18 0 25 -3 6 -5 1 -5 -13z"/>
<path d="M2663 1144 c-31 -7 -73 -49 -73 -74 0 -51 90 -90 160 -69 80 24 103
87 45 125 -26 17 -93 26 -132 18z"/>
<path d="M1349 1114 c-23 -28 26 -73 52 -47 5 5 -3 9 -19 8 -20 0 -27 5 -27
20 0 26 33 32 51 8 14 -17 14 -16 4 5 -12 26 -42 29 -61 6z"/>
<path d="M3010 1098 c-40 -20 -45 -27 -45 -57 0 -49 39 -76 110 -76 70 0 110
27 110 76 0 29 -6 37 -40 56 -51 29 -79 29 -135 1z"/>
<path d="M1312 1080 c0 -14 2 -19 5 -12 2 6 2 18 0 25 -3 6 -5 1 -5 -13z"/>
<path d="M1842 1080 c0 -14 2 -19 5 -12 2 6 2 18 0 25 -3 6 -5 1 -5 -13z"/>
<path d="M3320 1093 c0 -6 9 -18 20 -28 27 -25 85 -25 108 -1 16 18 16 18 -9
12 -24 -5 -57 1 -101 19 -10 4 -18 3 -18 -2z"/>
<path d="M1961 1070 c14 -31 19 -36 19 -24 0 6 -7 19 -16 30 -14 18 -14 18 -3
-6z"/>
<path d="M2424 1060 c-38 -15 -34 -25 9 -25 23 -1 56 -4 72 -9 l30 -7 -28 25
c-29 27 -48 31 -83 16z"/>
<path d="M1832 1025 c0 -16 2 -22 5 -12 2 9 2 23 0 30 -3 6 -5 -1 -5 -18z"/>
<path d="M411 1024 c0 -11 3 -14 6 -6 3 7 2 16 -1 19 -3 4 -6 -2 -5 -13z"/>
<path d="M1302 1010 c0 -19 2 -27 5 -17 2 9 2 25 0 35 -3 9 -5 1 -5 -18z"/>
<path d="M2880 1005 c-8 -8 -33 -21 -55 -29 l-40 -14 28 -7 c32 -9 72 13 80
44 6 25 6 25 -13 6z"/>
<path d="M3809 993 c-13 -16 -12 -17 4 -4 16 13 21 21 13 21 -2 0 -10 -8 -17
-17z"/>
<path d="M816 963 c-6 -14 -5 -15 5 -6 7 7 10 15 7 18 -3 3 -9 -2 -12 -12z"/>
<path d="M1822 955 c0 -16 2 -22 5 -12 2 9 2 23 0 30 -3 6 -5 -1 -5 -18z"/>
<path d="M436 958 c3 -4 11 -8 18 -8 7 0 18 -10 25 -22 8 -16 10 -17 6 -4 -3
11 -1 23 6 26 6 4 -5 9 -24 12 -20 2 -33 0 -31 -4z"/>
<path d="M3764 948 l-19 -23 23 19 c21 18 27 26 19 26 -2 0 -12 -10 -23 -22z"/>
<path d="M1293 920 c0 -25 2 -35 4 -22 2 12 2 32 0 45 -2 12 -4 2 -4 -23z"/>
<path d="M1002 900 c0 -19 2 -27 5 -17 2 9 2 25 0 35 -3 9 -5 1 -5 -18z"/>
<path d="M3700 905 c-11 -13 -10 -14 4 -9 9 3 16 10 16 15 0 13 -6 11 -20 -6z"/>
<path d="M1812 885 c0 -16 2 -22 5 -12 2 9 2 23 0 30 -3 6 -5 -1 -5 -18z"/>
<path d="M2002 880 c0 -19 2 -27 5 -17 2 9 2 25 0 35 -3 9 -5 1 -5 -18z"/>
<path d="M991 844 c0 -11 3 -14 6 -6 3 7 2 16 -1 19 -3 4 -6 -2 -5 -13z"/>
<path d="M1802 810 c0 -19 2 -27 5 -17 2 9 2 25 0 35 -3 9 -5 1 -5 -18z"/>
<path d="M2012 810 c0 -14 2 -19 5 -12 2 6 2 18 0 25 -3 6 -5 1 -5 -13z"/>
<path d="M955 779 c-16 -23 -54 -63 -83 -90 l-54 -49 40 -48 c99 -118 232
-229 359 -300 432 -242 979 -205 1374 93 88 66 240 219 271 273 l18 29 -98 7
c-53 4 -113 9 -132 11 l-35 5 32 -10 32 -10 -30 -65 c-74 -164 -88 -193 -118
-232 -17 -23 -45 -50 -63 -59 -18 -9 -35 -20 -38 -24 -14 -21 -254 -120 -291
-120 -4 0 -10 15 -12 33 l-4 32 -1 -36 c-2 -33 -5 -37 -34 -43 -58 -12 -277
-28 -293 -23 -12 5 -15 37 -18 179 l-3 173 -2 -178 -2 -177 -22 4 c-13 3 -53
7 -90 11 -94 8 -240 47 -347 93 -156 68 -341 205 -341 253 0 13 -5 75 -10 136
-10 107 -9 114 10 133 17 17 27 41 18 40 -2 0 -16 -19 -33 -41z"/>
<path d="M530 795 c0 -5 5 -17 10 -25 5 -8 10 -10 10 -5 0 6 -5 17 -10 25 -5
8 -10 11 -10 5z"/>
<path d="M2295 749 c-4 -6 -5 -12 -2 -15 2 -3 7 2 10 11 7 17 1 20 -8 4z"/>
<path d="M1793 710 c0 -25 2 -35 4 -22 2 12 2 32 0 45 -2 12 -4 2 -4 -23z"/>
<path d="M2031 740 c0 -8 4 -22 9 -30 12 -18 12 -2 0 25 -6 13 -9 15 -9 5z"/>
<path d="M560 726 c0 -11 30 -66 36 -66 2 0 -3 15 -12 33 -19 36 -24 44 -24
33z"/>
<path d="M1672 718 c-14 -14 -16 -44 -4 -52 4 -2 8 8 7 22 0 20 6 28 21 30 32
5 41 -28 14 -50 -12 -10 -18 -18 -12 -18 11 0 42 27 42 36 0 3 -5 14 -10 25
-12 21 -40 25 -58 7z"/>
<path d="M2282 695 c0 -16 2 -22 5 -12 2 9 2 23 0 30 -3 6 -5 -1 -5 -18z"/>
<path d="M1326 684 c-9 -24 -2 -26 12 -4 7 11 8 20 3 20 -5 0 -12 -7 -15 -16z"/>
<path d="M1368 692 c23 -16 10 -47 -18 -45 -22 2 -23 1 -7 -8 13 -8 22 -7 33
2 18 15 15 51 -6 56 -12 4 -12 3 -2 -5z"/>
<path d="M2050 686 c0 -11 40 -86 45 -86 3 0 -4 19 -16 43 -23 45 -29 54 -29
43z"/>
<path d="M600 646 c0 -2 8 -10 18 -17 15 -13 16 -12 3 4 -13 16 -21 21 -21 13z"/>
<path d="M1783 595 c0 -33 2 -45 4 -27 2 18 2 45 0 60 -2 15 -4 0 -4 -33z"/>
<path d="M649 597 c5 -5 21 -7 37 -5 27 3 26 4 -8 9 -22 3 -34 1 -29 -4z"/>
<path d="M1273 540 c0 -36 2 -50 4 -32 2 17 2 47 0 65 -2 17 -4 3 -4 -33z"/>
<path d="M2119 563 c12 -18 26 -35 31 -38 6 -4 10 -18 10 -32 0 -15 3 -23 7
-20 3 4 12 -1 19 -11 12 -14 12 -12 1 14 -6 17 -29 50 -51 75 -25 29 -31 33
-17 12z"/>
<path d="M2152 440 c0 -14 2 -19 5 -12 2 6 2 18 0 25 -3 6 -5 1 -5 -13z"/>
<path d="M2219 414 c11 -17 33 -39 48 -48 l28 -17 -25 21 c-14 12 -35 34 -48
48 l-24 27 21 -31z"/>
<path d="M2142 375 c0 -16 2 -22 5 -12 2 9 2 23 0 30 -3 6 -5 -1 -5 -18z"/>
<path d="M1283 320 c0 -25 2 -35 4 -22 2 12 2 32 0 45 -2 12 -4 2 -4 -23z"/>
<path d="M2330 330 c8 -5 24 -10 34 -10 26 0 18 6 -19 14 -22 5 -26 4 -15 -4z"/>
<path d="M1360 315 c10 -12 10 -18 0 -30 -8 -9 -9 -15 -2 -15 6 0 14 5 17 10
9 14 -4 50 -17 50 -6 0 -6 -6 2 -15z"/>
<path d="M2132 300 c0 -14 2 -19 5 -12 2 6 2 18 0 25 -3 6 -5 1 -5 -13z"/>
<path d="M1313 296 c1 -11 9 -21 17 -23 10 -3 11 -2 4 4 -6 4 -14 15 -17 23
-5 11 -6 9 -4 -4z"/>
<path d="M1701 226 c-12 -15 -5 -46 11 -46 6 0 5 6 -2 15 -13 16 -6 35 15 35
21 0 28 -19 15 -35 -7 -9 -8 -15 -2 -15 5 0 13 7 16 16 7 19 -10 44 -29 44 -7
0 -18 -6 -24 -14z"/>
</g>
</svg>
